<svg width="31" height="31" viewBox="0 0 31 31" fill="none" xmlns="http://www.w3.org/2000/svg">
<path d="M9.70011 25.5773C11.407 26.5617 13.3875 27.1249 15.4995 27.1249C21.9198 27.1249 27.125 21.9203 27.125 15.5C27.125 9.07969 21.9203 3.875 15.5 3.875C9.07969 3.875 3.875 9.07969 3.875 15.5C3.875 17.612 4.43822 19.5925 5.42267 21.2994L5.42648 21.306C5.5212 21.4703 5.56897 21.5531 5.5906 21.6314C5.61101 21.7052 5.61671 21.7715 5.61148 21.848C5.60587 21.9301 5.57819 22.0152 5.52146 22.1854L4.5284 25.1646L4.52715 25.1685C4.31763 25.7971 4.21286 26.1114 4.28754 26.3208C4.35265 26.5034 4.49718 26.6475 4.67977 26.7126C4.88872 26.7871 5.2016 26.6828 5.82741 26.4742L5.83521 26.4713L8.81439 25.4783C8.98402 25.4217 9.07026 25.393 9.15222 25.3874C9.22864 25.3822 9.29454 25.3891 9.36837 25.4095C9.44684 25.4312 9.5297 25.479 9.69478 25.5742L9.70011 25.5773Z" stroke="white" stroke-width="2" stroke-linecap="round" stroke-linejoin="round"/>
</svg>
