<svg width="31" height="31" viewBox="0 0 31 31" fill="none" xmlns="http://www.w3.org/2000/svg">
<path d="M19.375 21.9583V23.25C19.375 25.3901 17.6401 27.125 15.5 27.125C13.3599 27.125 11.625 25.3901 11.625 23.25V21.9583M19.375 21.9583H11.625M19.375 21.9583H24.0127C24.5068 21.9583 24.7551 21.9583 24.9551 21.8908C25.3373 21.7619 25.6363 21.4619 25.7652 21.0797C25.833 20.8789 25.833 20.6298 25.833 20.1318C25.833 19.9139 25.8327 19.805 25.8157 19.7011C25.7834 19.5047 25.7073 19.3186 25.5912 19.157C25.5299 19.0716 25.452 18.9937 25.2983 18.84L24.7952 18.3369C24.6329 18.1745 24.5417 17.9543 24.5417 17.7248V12.9167C24.5417 7.92308 20.4936 3.87499 15.5 3.875C10.5064 3.87501 6.45833 7.9231 6.45833 12.9167V17.7248C6.45833 17.9544 6.36694 18.1745 6.2046 18.3369L5.70149 18.84C5.54739 18.9941 5.47026 19.0715 5.40885 19.157C5.2928 19.3186 5.21594 19.5047 5.18371 19.7011C5.16666 19.805 5.16666 19.9139 5.16666 20.1319C5.16666 20.6299 5.16666 20.8788 5.23442 21.0797C5.36332 21.4618 5.66369 21.7619 6.04586 21.8908C6.24593 21.9583 6.49322 21.9583 6.98734 21.9583H11.625" stroke="white" stroke-width="2" stroke-linecap="round" stroke-linejoin="round"/>
</svg>
