<svg width="31" height="31" viewBox="0 0 31 31" fill="none" xmlns="http://www.w3.org/2000/svg">
<path d="M5.16669 10.3333H25.8334M5.16669 10.3333V21.7003C5.16669 23.1471 5.16669 23.8701 5.44825 24.4227C5.69593 24.9088 6.09084 25.3044 6.57692 25.5521C7.12899 25.8333 7.85205 25.8333 9.29603 25.8333H21.704C23.148 25.8333 23.87 25.8333 24.4221 25.5521C24.9082 25.3044 25.3044 24.9088 25.5521 24.4227C25.8334 23.8706 25.8334 23.1486 25.8334 21.7046V10.3333M5.16669 10.3333V9.30026C5.16669 7.85346 5.16669 7.12952 5.44825 6.57691C5.69593 6.09083 6.09084 5.69592 6.57692 5.44824C7.12953 5.16668 7.85347 5.16668 9.30027 5.16668H10.3334M25.8334 10.3333V9.29602C25.8334 7.85204 25.8334 7.12898 25.5521 6.57691C25.3044 6.09083 24.9082 5.69592 24.4221 5.44824C23.8695 5.16668 23.1471 5.16668 21.7003 5.16668H20.6667M20.6667 2.58334V5.16668M20.6667 5.16668H10.3334M10.3334 2.58334V5.16668" stroke="white" stroke-width="2" stroke-linecap="round" stroke-linejoin="round"/>
</svg>
