<svg width="31" height="31" viewBox="0 0 31 31" fill="none" xmlns="http://www.w3.org/2000/svg">
<path d="M5.16666 10.3333H25.8333M5.16666 10.3333V21.7003C5.16666 23.1471 5.16666 23.8701 5.44823 24.4227C5.6959 24.9088 6.09082 25.3044 6.5769 25.5521C7.12897 25.8333 7.85203 25.8333 9.29601 25.8333H21.704C23.148 25.8333 23.87 25.8333 24.422 25.5521C24.9081 25.3044 25.3044 24.9088 25.552 24.4227C25.8333 23.8706 25.8333 23.1486 25.8333 21.7046V10.3333M5.16666 10.3333V9.30026C5.16666 7.85346 5.16666 7.12952 5.44823 6.57691C5.6959 6.09083 6.09082 5.69592 6.5769 5.44824C7.12951 5.16668 7.85345 5.16668 9.30025 5.16668H10.3333M25.8333 10.3333V9.29602C25.8333 7.85204 25.8333 7.12898 25.552 6.57691C25.3044 6.09083 24.9081 5.69592 24.422 5.44824C23.8694 5.16668 23.1471 5.16668 21.7003 5.16668H20.6667M20.6667 2.58334V5.16668M20.6667 5.16668H10.3333M10.3333 2.58334V5.16668" stroke="white" stroke-width="2" stroke-linecap="round" stroke-linejoin="round"/>
</svg>
