<svg width="27" height="24" viewBox="0 0 27 24" fill="none" xmlns="http://www.w3.org/2000/svg">
<path d="M6.07263 9.92285C6.07263 14.7747 10.6673 18.7869 12.701 20.3252C12.9921 20.5454 13.1394 20.6568 13.3565 20.7132C13.5256 20.7572 13.7745 20.7572 13.9435 20.7132C14.1611 20.6567 14.3073 20.5463 14.5995 20.3254C16.6332 18.7871 21.2277 14.7751 21.2277 9.9233C21.2277 8.08718 20.4294 6.32605 19.0083 5.02772C17.5872 3.72939 15.66 3 13.6503 3C11.6406 3 9.71311 3.7295 8.29205 5.02783C6.87098 6.32616 6.07263 8.08674 6.07263 9.92285Z" stroke="#2A4D69" stroke-width="2" stroke-linecap="round" stroke-linejoin="round"/>
<path d="M11.4852 9C11.4852 10.1046 12.4545 11 13.6502 11C14.8459 11 15.8152 10.1046 15.8152 9C15.8152 7.89543 14.8459 7 13.6502 7C12.4545 7 11.4852 7.89543 11.4852 9Z" stroke="#2A4D69" stroke-width="2" stroke-linecap="round" stroke-linejoin="round"/>
</svg>
