<svg width="22" height="22" viewBox="0 0 22 22" fill="none" xmlns="http://www.w3.org/2000/svg">
<path d="M12.25 20.9989C12.1314 21 11.9983 21 11.8463 21H4.99614C3.59874 21 2.899 21 2.36475 20.7278C1.89434 20.4881 1.51217 20.1053 1.27248 19.6349C1 19.1001 1 18.4004 1 17.0002V5.00024C1 3.60011 1 2.89953 1.27248 2.36475C1.51217 1.89434 1.89434 1.51217 2.36475 1.27248C2.89953 1 3.60011 1 5.00024 1H17.0002C18.4004 1 19.0995 1 19.6342 1.27248C20.1046 1.51217 20.4881 1.89434 20.7278 2.36475C21 2.899 21 3.59874 21 4.99614V11.8434C21 11.9966 21 12.1307 20.9988 12.25M12.25 20.9989C12.6071 20.9957 12.8329 20.9828 13.0486 20.931C13.3036 20.8698 13.5473 20.7684 13.771 20.6313C14.0233 20.4767 14.2395 20.2611 14.6719 19.8287L19.8287 14.6719C20.2611 14.2395 20.4761 14.0233 20.6307 13.771C20.7678 13.5473 20.8692 13.303 20.9304 13.0479C20.9822 12.8323 20.9954 12.6068 20.9988 12.25M12.25 20.9989V14.2501C12.25 13.5501 12.25 13.1998 12.3862 12.9324C12.5061 12.6972 12.6972 12.5061 12.9324 12.3862C13.1998 12.25 13.5494 12.25 14.2495 12.25H20.9988" stroke="#878787" stroke-width="2" stroke-linecap="round" stroke-linejoin="round"/>
</svg>
