<svg width="22" height="17" viewBox="0 0 22 17" fill="none" xmlns="http://www.w3.org/2000/svg">
<path d="M17 12.25H18M8 12.25H14M5 12.25H4M4 8.5H18M4 4.75H18M1 12.0002V5.00024C1 3.60011 1 2.89953 1.21799 2.36475C1.40973 1.89434 1.71547 1.51217 2.0918 1.27248C2.51962 1 3.08009 1 4.2002 1H17.8002C18.9203 1 19.4796 1 19.9074 1.27248C20.2837 1.51217 20.5905 1.89434 20.7822 2.36475C21 2.899 21 3.59874 21 4.99614V12.0039C21 13.4013 21 14.1 20.7822 14.6342C20.5905 15.1046 20.2837 15.4881 19.9074 15.7278C19.48 16 18.921 16 17.8031 16H4.19691C3.07899 16 2.5192 16 2.0918 15.7278C1.71547 15.4881 1.40973 15.1046 1.21799 14.6342C1 14.0995 1 13.4004 1 12.0002Z" stroke="#878787" stroke-width="2" stroke-linecap="round" stroke-linejoin="round"/>
</svg>
